<?xml version="1.0" encoding="UTF-8"?>
<svg xmlns="http://www.w3.org/2000/svg" xmlns:xlink="http://www.w3.org/1999/xlink" width="2400" height="2400" viewBox="0 0 2400 2400">
<path fill-rule="nonzero" fill="rgb(0%, 0%, 0%)" fill-opacity="1" d="M 1200 1995.414062 C 1419.691406 1995.414062 1618.578125 1906.367188 1762.539062 1762.410156 C 1906.5 1618.453125 1995.550781 1419.558594 1995.550781 1199.871094 C 1995.550781 980.179688 1906.5 781.289062 1762.539062 637.328125 C 1713.058594 587.851562 1657.101562 544.859375 1596.03125 509.738281 C 1647.179688 585.738281 1677.039062 677.269531 1677.039062 775.761719 C 1677.039062 907.480469 1623.640625 1026.75 1537.308594 1113.070312 C 1450.988281 1199.398438 1331.71875 1252.800781 1200 1252.800781 C 1097.429688 1252.800781 1004.558594 1294.378906 937.351562 1361.589844 C 870.140625 1428.800781 828.5625 1521.667969 828.5625 1624.242188 C 828.5625 1726.8125 870.140625 1819.683594 937.347656 1886.894531 C 1000.300781 1949.839844 1085.738281 1990.296875 1180.601562 1995.179688 C 1187.039062 1995.332031 1193.511719 1995.414062 1200 1995.414062 Z M 1221.300781 1743.183594 C 1254.21875 1743.183594 1284.03125 1729.835938 1305.601562 1708.273438 C 1327.160156 1686.710938 1340.511719 1656.898438 1340.511719 1623.980469 C 1340.511719 1591.054688 1327.160156 1561.25 1305.601562 1539.683594 C 1284.03125 1518.117188 1254.230469 1504.777344 1221.300781 1504.777344 C 1188.378906 1504.777344 1158.570312 1518.117188 1137.011719 1539.683594 C 1115.449219 1561.25 1102.101562 1591.054688 1102.101562 1623.980469 C 1102.101562 1656.898438 1115.449219 1686.710938 1137.011719 1708.273438 C 1158.570312 1729.835938 1188.378906 1743.183594 1221.300781 1743.183594 Z M 1380.261719 1782.9375 C 1339.578125 1823.613281 1283.371094 1848.785156 1221.300781 1848.785156 C 1159.238281 1848.785156 1103.03125 1823.613281 1062.351562 1782.9375 C 1021.671875 1742.25 996.496094 1686.042969 996.496094 1623.980469 C 996.496094 1561.90625 1021.671875 1505.703125 1062.351562 1465.019531 C 1103.03125 1424.339844 1159.238281 1399.171875 1221.300781 1399.171875 C 1283.378906 1399.171875 1339.578125 1424.339844 1380.261719 1465.019531 C 1420.941406 1505.703125 1446.109375 1561.90625 1446.109375 1623.980469 C 1446.109375 1686.042969 1420.941406 1742.25 1380.261719 1782.9375 Z M 1221.300781 550.960938 C 1283.378906 550.960938 1339.578125 576.121094 1380.261719 616.808594 C 1420.941406 657.488281 1446.109375 713.691406 1446.109375 775.761719 C 1446.109375 837.828125 1420.941406 894.03125 1380.261719 934.71875 C 1339.578125 975.398438 1283.371094 1000.570312 1221.300781 1000.570312 C 1159.238281 1000.570312 1103.03125 975.398438 1062.351562 934.71875 C 1021.671875 894.03125 996.496094 837.828125 996.496094 775.761719 C 996.496094 713.691406 1021.671875 657.488281 1062.351562 616.808594 C 1103.03125 576.121094 1159.238281 550.960938 1221.300781 550.960938 Z M 1305.601562 691.46875 C 1284.03125 669.898438 1254.230469 656.558594 1221.300781 656.558594 C 1188.378906 656.558594 1158.570312 669.898438 1137.011719 691.46875 C 1115.449219 713.03125 1102.101562 742.839844 1102.101562 775.761719 C 1102.101562 808.679688 1115.449219 838.488281 1137.011719 860.058594 C 1158.570312 881.621094 1188.378906 894.96875 1221.300781 894.96875 C 1254.21875 894.96875 1284.03125 881.621094 1305.601562 860.058594 C 1327.160156 838.488281 1340.511719 808.679688 1340.511719 775.761719 C 1340.511719 742.839844 1327.160156 713.03125 1305.601562 691.46875 Z M 1200 1147.199219 C 1302.570312 1147.199219 1395.441406 1105.621094 1462.648438 1038.410156 C 1529.859375 971.199219 1571.441406 878.339844 1571.441406 775.761719 C 1571.441406 673.191406 1529.859375 580.320312 1462.648438 513.109375 C 1396.601562 447.050781 1305.761719 405.761719 1205.28125 404.359375 L 1200 404.328125 C 980.3125 404.328125 781.414062 493.371094 637.457031 637.328125 C 493.5 781.289062 404.453125 980.179688 404.453125 1199.871094 C 404.453125 1419.558594 493.5 1618.453125 637.457031 1762.410156 C 686.859375 1811.8125 742.730469 1854.746094 803.6875 1889.832031 C 752.707031 1813.914062 722.960938 1722.546875 722.960938 1624.242188 C 722.960938 1492.523438 776.359375 1373.25 862.6875 1286.929688 C 949.011719 1200.601562 1068.28125 1147.199219 1200 1147.199219 Z M 1217.609375 2100.832031 C 1210.558594 2101.132812 1204.691406 2101.28125 1200 2101.28125 C 1192.28125 2101.28125 1184.589844 2101.09375 1176.949219 2100.726562 C 937.269531 2094.710938 720.816406 1995.097656 562.796875 1837.074219 C 399.722656 1674 298.851562 1448.703125 298.851562 1199.871094 C 298.851562 951.039062 399.722656 725.738281 562.796875 562.671875 C 725.710938 399.75 950.734375 298.921875 1199.28125 298.730469 L 1200 298.71875 C 1202.230469 298.71875 1204.449219 298.738281 1206.671875 298.761719 C 1452.859375 300.550781 1675.589844 401.050781 1837.199219 562.671875 C 2000.28125 725.738281 2101.148438 951.039062 2101.148438 1199.871094 C 2101.148438 1448.707031 2000.28125 1674 1837.199219 1837.074219 C 1677.988281 1996.289062 1459.460938 2096.195312 1217.609375 2100.832031 "/>
</svg>
